<?xml version="1.0" encoding="UTF-8" standalone="no"?>
<!DOCTYPE svg PUBLIC "-//W3C//DTD SVG 1.1//EN"
 "http://www.w3.org/Graphics/SVG/1.1/DTD/svg11.dtd">
<!-- Generated by graphviz version 2.42.3 (20191010.1750)
 -->
<!-- Title: snakemake_dag Pages: 1 -->
<svg width="422pt" height="332pt"
 viewBox="0.00 0.00 422.00 332.00" xmlns="http://www.w3.org/2000/svg" xmlns:xlink="http://www.w3.org/1999/xlink">
<g id="graph0" class="graph" transform="scale(1 1) rotate(0) translate(4 328)">
<title>snakemake_dag</title>
<polygon fill="white" stroke="transparent" points="-4,4 -4,-328 418,-328 418,4 -4,4"/>
<!-- 0 -->
<g id="node1" class="node">
<title>0</title>
<path fill="none" stroke="#56a2d8" stroke-width="2" d="M232.5,-36C232.5,-36 202.5,-36 202.5,-36 196.5,-36 190.5,-30 190.5,-24 190.5,-24 190.5,-12 190.5,-12 190.5,-6 196.5,0 202.5,0 202.5,0 232.5,0 232.5,0 238.5,0 244.5,-6 244.5,-12 244.5,-12 244.5,-24 244.5,-24 244.5,-30 238.5,-36 232.5,-36"/>
<text text-anchor="middle" x="217.5" y="-15.5" font-family="sans" font-size="10.00">all</text>
</g>
<!-- 1 -->
<g id="node2" class="node">
<title>1</title>
<path fill="none" stroke="#78d856" stroke-width="2" d="M270.5,-108C270.5,-108 164.5,-108 164.5,-108 158.5,-108 152.5,-102 152.5,-96 152.5,-96 152.5,-84 152.5,-84 152.5,-78 158.5,-72 164.5,-72 164.5,-72 270.5,-72 270.5,-72 276.5,-72 282.5,-78 282.5,-84 282.5,-84 282.5,-96 282.5,-96 282.5,-102 276.5,-108 270.5,-108"/>
<text text-anchor="middle" x="217.5" y="-87.5" font-family="sans" font-size="10.00">check_Split_proteomes</text>
</g>
<!-- 1&#45;&gt;0 -->
<g id="edge1" class="edge">
<title>1&#45;&gt;0</title>
<path fill="none" stroke="grey" stroke-width="2" d="M217.5,-71.7C217.5,-63.98 217.5,-54.71 217.5,-46.11"/>
<polygon fill="grey" stroke="grey" stroke-width="2" points="221,-46.1 217.5,-36.1 214,-46.1 221,-46.1"/>
</g>
<!-- 2 -->
<g id="node3" class="node">
<title>2</title>
<path fill="none" stroke="#56d87b" stroke-width="2" d="M266,-180C266,-180 169,-180 169,-180 163,-180 157,-174 157,-168 157,-168 157,-156 157,-156 157,-150 163,-144 169,-144 169,-144 266,-144 266,-144 272,-144 278,-150 278,-156 278,-156 278,-168 278,-168 278,-174 272,-180 266,-180"/>
<text text-anchor="middle" x="217.5" y="-159.5" font-family="sans" font-size="10.00">Expand_Master_table</text>
</g>
<!-- 2&#45;&gt;1 -->
<g id="edge2" class="edge">
<title>2&#45;&gt;1</title>
<path fill="none" stroke="grey" stroke-width="2" d="M217.5,-143.7C217.5,-135.98 217.5,-126.71 217.5,-118.11"/>
<polygon fill="grey" stroke="grey" stroke-width="2" points="221,-118.1 217.5,-108.1 214,-118.1 221,-118.1"/>
</g>
<!-- 3 -->
<g id="node4" class="node">
<title>3</title>
<path fill="none" stroke="#d85656" stroke-width="2" d="M180,-252C180,-252 73,-252 73,-252 67,-252 61,-246 61,-240 61,-240 61,-228 61,-228 61,-222 67,-216 73,-216 73,-216 180,-216 180,-216 186,-216 192,-222 192,-228 192,-228 192,-240 192,-240 192,-246 186,-252 180,-252"/>
<text text-anchor="middle" x="126.5" y="-231.5" font-family="sans" font-size="10.00">Split_proteome_chunks</text>
</g>
<!-- 3&#45;&gt;2 -->
<g id="edge3" class="edge">
<title>3&#45;&gt;2</title>
<path fill="none" stroke="grey" stroke-width="2" d="M148.99,-215.7C160.46,-206.88 174.56,-196.03 186.98,-186.47"/>
<polygon fill="grey" stroke="grey" stroke-width="2" points="189.47,-188.98 195.26,-180.1 185.2,-183.43 189.47,-188.98"/>
</g>
<!-- 4 -->
<g id="node5" class="node">
<title>4</title>
<path fill="none" stroke="#56d8c9" stroke-width="2" stroke-dasharray="5,2" d="M207,-324C207,-324 12,-324 12,-324 6,-324 0,-318 0,-312 0,-312 0,-300 0,-300 0,-294 6,-288 12,-288 12,-288 207,-288 207,-288 213,-288 219,-294 219,-300 219,-300 219,-312 219,-312 219,-318 213,-324 207,-324"/>
<text text-anchor="middle" x="109.5" y="-309" font-family="sans" font-size="10.00">Cluster_proteome</text>
<text text-anchor="middle" x="109.5" y="-298" font-family="sans" font-size="10.00">proteome: proteome_expressed_gencode</text>
</g>
<!-- 4&#45;&gt;3 -->
<g id="edge5" class="edge">
<title>4&#45;&gt;3</title>
<path fill="none" stroke="grey" stroke-width="2" d="M113.7,-287.7C115.6,-279.9 117.88,-270.51 119.98,-261.83"/>
<polygon fill="grey" stroke="grey" stroke-width="2" points="123.39,-262.65 122.35,-252.1 116.58,-261 123.39,-262.65"/>
</g>
<!-- 5 -->
<g id="node6" class="node">
<title>5</title>
<path fill="none" stroke="#d85656" stroke-width="2" d="M362,-252C362,-252 255,-252 255,-252 249,-252 243,-246 243,-240 243,-240 243,-228 243,-228 243,-222 249,-216 255,-216 255,-216 362,-216 362,-216 368,-216 374,-222 374,-228 374,-228 374,-240 374,-240 374,-246 368,-252 362,-252"/>
<text text-anchor="middle" x="308.5" y="-231.5" font-family="sans" font-size="10.00">Split_proteome_chunks</text>
</g>
<!-- 5&#45;&gt;2 -->
<g id="edge4" class="edge">
<title>5&#45;&gt;2</title>
<path fill="none" stroke="grey" stroke-width="2" d="M286.01,-215.7C274.54,-206.88 260.44,-196.03 248.02,-186.47"/>
<polygon fill="grey" stroke="grey" stroke-width="2" points="249.8,-183.43 239.74,-180.1 245.53,-188.98 249.8,-183.43"/>
</g>
<!-- 6 -->
<g id="node7" class="node">
<title>6</title>
<path fill="none" stroke="#56d8c9" stroke-width="2" stroke-dasharray="5,2" d="M402,-324C402,-324 249,-324 249,-324 243,-324 237,-318 237,-312 237,-312 237,-300 237,-300 237,-294 243,-288 249,-288 249,-288 402,-288 402,-288 408,-288 414,-294 414,-300 414,-300 414,-312 414,-312 414,-318 408,-324 402,-324"/>
<text text-anchor="middle" x="325.5" y="-309" font-family="sans" font-size="10.00">Cluster_proteome</text>
<text text-anchor="middle" x="325.5" y="-298" font-family="sans" font-size="10.00">proteome: fiveUTR_seq_3_frame</text>
</g>
<!-- 6&#45;&gt;5 -->
<g id="edge6" class="edge">
<title>6&#45;&gt;5</title>
<path fill="none" stroke="grey" stroke-width="2" d="M321.3,-287.7C319.4,-279.9 317.12,-270.51 315.02,-261.83"/>
<polygon fill="grey" stroke="grey" stroke-width="2" points="318.42,-261 312.65,-252.1 311.61,-262.65 318.42,-261"/>
</g>
</g>
</svg>
