<?xml version="1.0" encoding="UTF-8" standalone="no"?>
<!DOCTYPE svg PUBLIC "-//W3C//DTD SVG 1.1//EN"
 "http://www.w3.org/Graphics/SVG/1.1/DTD/svg11.dtd">
<!-- Generated by graphviz version 2.47.3 (20210619.2315)
 -->
<!-- Title: snakemake_dag Pages: 1 -->
<svg width="139pt" height="332pt"
 viewBox="0.00 0.00 139.00 332.00" xmlns="http://www.w3.org/2000/svg" xmlns:xlink="http://www.w3.org/1999/xlink">
<g id="graph0" class="graph" transform="scale(1 1) rotate(0) translate(4 328)">
<title>snakemake_dag</title>
<polygon fill="white" stroke="transparent" points="-4,4 -4,-328 135,-328 135,4 -4,4"/>
<!-- 0 -->
<g id="node1" class="node">
<title>0</title>
<path fill="none" stroke="#56c1d8" stroke-width="2" d="M80.5,-36C80.5,-36 50.5,-36 50.5,-36 44.5,-36 38.5,-30 38.5,-24 38.5,-24 38.5,-12 38.5,-12 38.5,-6 44.5,0 50.5,0 50.5,0 80.5,0 80.5,0 86.5,0 92.5,-6 92.5,-12 92.5,-12 92.5,-24 92.5,-24 92.5,-30 86.5,-36 80.5,-36"/>
<text text-anchor="middle" x="65.5" y="-15.5" font-family="sans" font-size="10.00">all</text>
</g>
<!-- 1 -->
<g id="node2" class="node">
<title>1</title>
<path fill="none" stroke="#d85656" stroke-width="2" d="M118.5,-108C118.5,-108 12.5,-108 12.5,-108 6.5,-108 0.5,-102 0.5,-96 0.5,-96 0.5,-84 0.5,-84 0.5,-78 6.5,-72 12.5,-72 12.5,-72 118.5,-72 118.5,-72 124.5,-72 130.5,-78 130.5,-84 130.5,-84 130.5,-96 130.5,-96 130.5,-102 124.5,-108 118.5,-108"/>
<text text-anchor="middle" x="65.5" y="-87.5" font-family="sans" font-size="10.00">check_Split_proteomes</text>
</g>
<!-- 1&#45;&gt;0 -->
<g id="edge1" class="edge">
<title>1&#45;&gt;0</title>
<path fill="none" stroke="grey" stroke-width="2" d="M65.5,-71.7C65.5,-63.98 65.5,-54.71 65.5,-46.11"/>
<polygon fill="grey" stroke="grey" stroke-width="2" points="69,-46.1 65.5,-36.1 62,-46.1 69,-46.1"/>
</g>
<!-- 2 -->
<g id="node3" class="node">
<title>2</title>
<path fill="none" stroke="#d8bc56" stroke-width="2" d="M114.5,-180C114.5,-180 16.5,-180 16.5,-180 10.5,-180 4.5,-174 4.5,-168 4.5,-168 4.5,-156 4.5,-156 4.5,-150 10.5,-144 16.5,-144 16.5,-144 114.5,-144 114.5,-144 120.5,-144 126.5,-150 126.5,-156 126.5,-156 126.5,-168 126.5,-168 126.5,-174 120.5,-180 114.5,-180"/>
<text text-anchor="middle" x="65.5" y="-159.5" font-family="sans" font-size="10.00">Expand_Master_table</text>
</g>
<!-- 2&#45;&gt;1 -->
<g id="edge2" class="edge">
<title>2&#45;&gt;1</title>
<path fill="none" stroke="grey" stroke-width="2" d="M65.5,-143.7C65.5,-135.98 65.5,-126.71 65.5,-118.11"/>
<polygon fill="grey" stroke="grey" stroke-width="2" points="69,-118.1 65.5,-108.1 62,-118.1 69,-118.1"/>
</g>
<!-- 3 -->
<g id="node4" class="node">
<title>3</title>
<path fill="none" stroke="#56d88a" stroke-width="2" d="M119,-252C119,-252 12,-252 12,-252 6,-252 0,-246 0,-240 0,-240 0,-228 0,-228 0,-222 6,-216 12,-216 12,-216 119,-216 119,-216 125,-216 131,-222 131,-228 131,-228 131,-240 131,-240 131,-246 125,-252 119,-252"/>
<text text-anchor="middle" x="65.5" y="-231.5" font-family="sans" font-size="10.00">Split_proteome_chunks</text>
</g>
<!-- 3&#45;&gt;2 -->
<g id="edge3" class="edge">
<title>3&#45;&gt;2</title>
<path fill="none" stroke="grey" stroke-width="2" d="M65.5,-215.7C65.5,-207.98 65.5,-198.71 65.5,-190.11"/>
<polygon fill="grey" stroke="grey" stroke-width="2" points="69,-190.1 65.5,-180.1 62,-190.1 69,-190.1"/>
</g>
<!-- 4 -->
<g id="node5" class="node">
<title>4</title>
<path fill="none" stroke="#88d856" stroke-width="2" d="M105.5,-324C105.5,-324 25.5,-324 25.5,-324 19.5,-324 13.5,-318 13.5,-312 13.5,-312 13.5,-300 13.5,-300 13.5,-294 19.5,-288 25.5,-288 25.5,-288 105.5,-288 105.5,-288 111.5,-288 117.5,-294 117.5,-300 117.5,-300 117.5,-312 117.5,-312 117.5,-318 111.5,-324 105.5,-324"/>
<text text-anchor="middle" x="65.5" y="-303.5" font-family="sans" font-size="10.00">Cluster_proteome</text>
</g>
<!-- 4&#45;&gt;3 -->
<g id="edge4" class="edge">
<title>4&#45;&gt;3</title>
<path fill="none" stroke="grey" stroke-width="2" d="M65.5,-287.7C65.5,-279.98 65.5,-270.71 65.5,-262.11"/>
<polygon fill="grey" stroke="grey" stroke-width="2" points="69,-262.1 65.5,-252.1 62,-262.1 69,-262.1"/>
</g>
</g>
</svg>
