<?xml version="1.0" encoding="UTF-8" standalone="no"?>
<!DOCTYPE svg PUBLIC "-//W3C//DTD SVG 1.1//EN"
 "http://www.w3.org/Graphics/SVG/1.1/DTD/svg11.dtd">
<!-- Generated by graphviz version 2.42.3 (20191010.1750)
 -->
<!-- Title: snakemake_dag Pages: 1 -->
<svg width="479pt" height="808pt"
 viewBox="0.00 0.00 479.00 808.00" xmlns="http://www.w3.org/2000/svg" xmlns:xlink="http://www.w3.org/1999/xlink">
<g id="graph0" class="graph" transform="scale(1 1) rotate(0) translate(4 804)">
<title>snakemake_dag</title>
<polygon fill="white" stroke="transparent" points="-4,4 -4,-804 475,-804 475,4 -4,4"/>
<!-- 0 -->
<g id="node1" class="node">
<title>0</title>
<text text-anchor="start" x="223.5" y="-71.6" font-family="sans" font-weight="bold" font-size="18.00">all</text>
<text text-anchor="start" x="94.5" y="-47.8" font-family="sans" font-size="10.00"> </text>
<text text-anchor="start" x="98.5" y="-47.8" font-family="sans" font-weight="bold" font-size="14.00">↪ input</text>
<text text-anchor="start" x="159.5" y="-47.8" font-family="sans" font-size="10.00"> </text>
<text text-anchor="start" x="94.5" y="-28" font-family="monospace" font-size="10.00">results/DB_exhaustive/.Expand_Master_table.done</text>
<text text-anchor="start" x="370.5" y="-10" font-family="sans" font-size="10.00"> &#160;</text>
<polygon fill="#57a1d9" stroke="#57a1d9" points="88.5,-62 88.5,-62 384.5,-62 384.5,-62 88.5,-62"/>
<polygon fill="#57a1d9" stroke="#57a1d9" points="88.5,-22 88.5,-22 384.5,-22 384.5,-22 88.5,-22"/>
<polygon fill="none" stroke="#57a1d9" stroke-width="2" points="88,-1 88,-91 383,-91 383,-1 88,-1"/>
</g>
<!-- 1 -->
<g id="node2" class="node">
<title>1</title>
<text text-anchor="start" x="121.5" y="-221.6" font-family="sans" font-weight="bold" font-size="18.00">check_Split_proteomes</text>
<text text-anchor="start" x="94.5" y="-197.8" font-family="sans" font-size="10.00"> </text>
<text text-anchor="start" x="98.5" y="-197.8" font-family="sans" font-weight="bold" font-size="14.00">↪ input</text>
<text text-anchor="start" x="159.5" y="-197.8" font-family="sans" font-size="10.00"> </text>
<text text-anchor="start" x="94.5" y="-178" font-family="monospace" font-size="10.00">results/DB_exhaustive/Master_table_expanded.csv</text>
<text text-anchor="start" x="296.5" y="-157.8" font-family="sans" font-size="10.00"> </text>
<text text-anchor="start" x="300.5" y="-157.8" font-family="sans" font-weight="bold" font-size="14.00">output →</text>
<text text-anchor="start" x="373.5" y="-157.8" font-family="sans" font-size="10.00"> </text>
<text text-anchor="start" x="94.5" y="-138" font-family="monospace" font-size="10.00">results/DB_exhaustive/.Expand_Master_table.done</text>
<polygon fill="#d9a157" stroke="#d9a157" points="88.5,-212 88.5,-212 384.5,-212 384.5,-212 88.5,-212"/>
<polygon fill="#d9a157" stroke="#d9a157" points="88.5,-172 88.5,-172 384.5,-172 384.5,-172 88.5,-172"/>
<polygon fill="none" stroke="#d9a157" stroke-width="2" points="88,-129 88,-241 383,-241 383,-129 88,-129"/>
</g>
<!-- 1&#45;&gt;0 -->
<g id="edge1" class="edge">
<title>1&#45;&gt;0</title>
<path fill="none" stroke="grey" stroke-width="2" d="M235.5,-127.88C235.5,-119.48 235.5,-110.81 235.5,-102.42"/>
<polygon fill="grey" stroke="grey" stroke-width="2" points="239,-102.36 235.5,-92.36 232,-102.36 239,-102.36"/>
</g>
<!-- 2 -->
<g id="node3" class="node">
<title>2</title>
<text text-anchor="start" x="129.5" y="-407.6" font-family="sans" font-weight="bold" font-size="18.00">Expand_Master_table</text>
<text text-anchor="start" x="7.5" y="-383.8" font-family="sans" font-size="10.00"> </text>
<text text-anchor="start" x="11.5" y="-383.8" font-family="sans" font-weight="bold" font-size="14.00">↪ input</text>
<text text-anchor="start" x="72.5" y="-383.8" font-family="sans" font-size="10.00"> </text>
<text text-anchor="start" x="7.5" y="-364" font-family="monospace" font-size="10.00">Master_table.csv</text>
<text text-anchor="start" x="7.5" y="-346" font-family="monospace" font-size="10.00">results/DB_exhaustive/.Split_proteome_chunks_fiveUTR_seq_3_frame.done</text>
<text text-anchor="start" x="7.5" y="-328" font-family="monospace" font-size="10.00">results/DB_exhaustive/.Split_proteome_chunks_proteome_expressed_gencode.done</text>
<text text-anchor="start" x="383.5" y="-307.8" font-family="sans" font-size="10.00"> </text>
<text text-anchor="start" x="387.5" y="-307.8" font-family="sans" font-weight="bold" font-size="14.00">output →</text>
<text text-anchor="start" x="460.5" y="-307.8" font-family="sans" font-size="10.00"> </text>
<text text-anchor="start" x="7.5" y="-288" font-family="monospace" font-size="10.00">results/DB_exhaustive/Master_table_expanded.csv</text>
<polygon fill="#7cd957" stroke="#7cd957" points="1.5,-398 1.5,-398 471.5,-398 471.5,-398 1.5,-398"/>
<polygon fill="#7cd957" stroke="#7cd957" points="1.5,-322 1.5,-322 471.5,-322 471.5,-322 1.5,-322"/>
<polygon fill="none" stroke="#7cd957" stroke-width="2" points="1,-279 1,-427 470,-427 470,-279 1,-279"/>
</g>
<!-- 2&#45;&gt;1 -->
<g id="edge2" class="edge">
<title>2&#45;&gt;1</title>
<path fill="none" stroke="grey" stroke-width="2" d="M235.5,-277.74C235.5,-269.27 235.5,-260.68 235.5,-252.32"/>
<polygon fill="grey" stroke="grey" stroke-width="2" points="239,-252.27 235.5,-242.27 232,-252.27 239,-252.27"/>
</g>
<!-- 3 -->
<g id="node4" class="node">
<title>3</title>
<text text-anchor="start" x="120" y="-629.6" font-family="sans" font-weight="bold" font-size="18.00">Split_proteome_chunks</text>
<text text-anchor="start" x="55.5" y="-605.8" font-family="sans" font-size="10.00"> </text>
<text text-anchor="start" x="59.5" y="-605.8" font-family="sans" font-weight="bold" font-size="14.00">↪ input</text>
<text text-anchor="start" x="120.5" y="-605.8" font-family="sans" font-size="10.00"> </text>
<text text-anchor="start" x="55.5" y="-586" font-family="monospace" font-size="10.00">Master_table.csv</text>
<text text-anchor="start" x="55.5" y="-568" font-family="monospace" font-size="10.00">data/reference/{proteome}.fasta</text>
<text text-anchor="start" x="55.5" y="-550" font-family="monospace" font-size="10.00">results/Cluster/{proteome}/{proteome}_cluster.tsv</text>
<text text-anchor="start" x="55.5" y="-532" font-family="monospace" font-size="10.00">src/snakefiles/functions.R</text>
<text text-anchor="start" x="335.5" y="-511.8" font-family="sans" font-size="10.00"> </text>
<text text-anchor="start" x="339.5" y="-511.8" font-family="sans" font-weight="bold" font-size="14.00">output →</text>
<text text-anchor="start" x="412.5" y="-511.8" font-family="sans" font-size="10.00"> </text>
<text text-anchor="start" x="55.5" y="-492" font-family="monospace" font-size="10.00">results/DB_exhaustive/.Split_proteome_chunks_{proteome}.done</text>
<text text-anchor="start" x="55.5" y="-474" font-family="monospace" font-size="10.00">results/DB_exhaustive/{proteome}</text>
<polygon fill="#c6d957" stroke="#c6d957" points="49.5,-620 49.5,-620 423.5,-620 423.5,-620 49.5,-620"/>
<polygon fill="#c6d957" stroke="#c6d957" points="49.5,-526 49.5,-526 423.5,-526 423.5,-526 49.5,-526"/>
<polygon fill="none" stroke="#c6d957" stroke-width="2" points="49,-465 49,-649 422,-649 422,-465 49,-465"/>
</g>
<!-- 3&#45;&gt;2 -->
<g id="edge3" class="edge">
<title>3&#45;&gt;2</title>
<path fill="none" stroke="grey" stroke-width="2" d="M235.5,-463.87C235.5,-455.36 235.5,-446.77 235.5,-438.34"/>
<polygon fill="grey" stroke="grey" stroke-width="2" points="239,-438.15 235.5,-428.15 232,-438.15 239,-438.15"/>
</g>
<!-- 4 -->
<g id="node5" class="node">
<title>4</title>
<text text-anchor="start" x="147" y="-779.6" font-family="sans" font-weight="bold" font-size="18.00">Cluster_proteome</text>
<text text-anchor="start" x="88.5" y="-755.8" font-family="sans" font-size="10.00"> </text>
<text text-anchor="start" x="92.5" y="-755.8" font-family="sans" font-weight="bold" font-size="14.00">↪ input</text>
<text text-anchor="start" x="153.5" y="-755.8" font-family="sans" font-size="10.00"> </text>
<text text-anchor="start" x="88.5" y="-736" font-family="monospace" font-size="10.00">data/reference/{proteome}.fasta</text>
<text text-anchor="start" x="302.5" y="-715.8" font-family="sans" font-size="10.00"> </text>
<text text-anchor="start" x="306.5" y="-715.8" font-family="sans" font-weight="bold" font-size="14.00">output →</text>
<text text-anchor="start" x="379.5" y="-715.8" font-family="sans" font-size="10.00"> </text>
<text text-anchor="start" x="88.5" y="-696" font-family="monospace" font-size="10.00">results/Cluster/{proteome}/{proteome}_cluster.tsv</text>
<polygon fill="#d95757" stroke="#d95757" points="82.5,-770 82.5,-770 390.5,-770 390.5,-770 82.5,-770"/>
<polygon fill="#d95757" stroke="#d95757" points="82.5,-730 82.5,-730 390.5,-730 390.5,-730 82.5,-730"/>
<polygon fill="none" stroke="#d95757" stroke-width="2" points="82,-687 82,-799 389,-799 389,-687 82,-687"/>
</g>
<!-- 4&#45;&gt;3 -->
<g id="edge4" class="edge">
<title>4&#45;&gt;3</title>
<path fill="none" stroke="grey" stroke-width="2" d="M235.5,-685.79C235.5,-677.67 235.5,-669.1 235.5,-660.4"/>
<polygon fill="grey" stroke="grey" stroke-width="2" points="239,-660.16 235.5,-650.16 232,-660.16 239,-660.16"/>
</g>
</g>
</svg>
